<svg width="60" height="60" viewBox="0 0 60 60" fill="none" xmlns="http://www.w3.org/2000/svg">
<rect width="60" height="60" rx="14" fill="#F0EEFF"/>
<g clip-path="url(#clip0_21_1230)">
<path d="M42.3948 25.5811C42.2396 25.2542 41.9099 25.0457 41.5479 25.0457H32.1451L37.8364 15.4144C38.0076 15.1246 38.0103 14.7651 37.8434 14.4728C37.6766 14.1805 37.3658 13.9999 37.0291 14L28.9958 14.0009C28.6624 14.001 28.3541 14.178 28.1861 14.4659L17.6424 32.5399C17.4732 32.8299 17.472 33.1881 17.6392 33.4792C17.8064 33.7703 18.1165 33.9498 18.4521 33.9498H27.7951L25.0739 44.8351C24.9674 45.2609 25.1708 45.7038 25.5633 45.9006C25.6972 45.9676 25.8408 46 25.9829 46C26.2577 46 26.5269 45.8793 26.7098 45.655L42.2744 26.5758C42.5032 26.2953 42.5501 25.9081 42.3948 25.5811Z" fill="#FF754C"/>
</g>
<defs>
<clipPath id="clip0_21_1230">
<rect width="32" height="32" fill="white" transform="translate(14 14)"/>
</clipPath>
</defs>
</svg>
