<svg width="60" height="60" viewBox="0 0 60 60" fill="none" xmlns="http://www.w3.org/2000/svg">
<rect width="60" height="60" rx="14" fill="#F0EEFF"/>
<path d="M39.3899 29.6C39.6646 29.3192 39.8559 28.9676 39.9424 28.5844C40.029 28.2013 40.0073 27.8016 39.8799 27.43C39.7604 27.0573 39.5386 26.7257 39.2398 26.4729C38.941 26.2201 38.5773 26.0562 38.1899 26L33.8999 25.34C33.8799 25.3342 33.8615 25.324 33.8459 25.3102C33.8303 25.2963 33.818 25.2792 33.8099 25.26L31.9299 21.26C31.7651 20.8855 31.4949 20.5669 31.1522 20.3432C30.8095 20.1195 30.4092 20.0003 29.9999 20C29.5954 19.9983 29.1991 20.1135 28.8585 20.3317C28.5179 20.5499 28.2475 20.8619 28.0799 21.23L26.1999 25.23C26.1897 25.2495 26.1755 25.2667 26.1583 25.2805C26.1411 25.2942 26.1212 25.3043 26.0999 25.31L21.8199 26C21.432 26.0578 21.0678 26.2221 20.7676 26.4745C20.4675 26.727 20.2433 27.0577 20.1199 27.43C19.9972 27.8029 19.979 28.2023 20.0671 28.5848C20.1552 28.9673 20.3464 29.3184 20.6199 29.6L23.7799 32.85C23.789 32.8705 23.7937 32.8926 23.7937 32.915C23.7937 32.9374 23.789 32.9596 23.7799 32.98L23.0399 37.52C22.9711 37.9154 23.016 38.3222 23.1693 38.6931C23.3225 39.064 23.5779 39.3838 23.9058 39.6152C24.2336 39.8467 24.6204 39.9804 25.0212 40.0007C25.422 40.021 25.8204 39.9271 26.1699 39.73L29.8999 37.66C29.9185 37.6504 29.939 37.6453 29.9599 37.6453C29.9808 37.6453 30.0014 37.6504 30.0199 37.66L33.7499 39.73C34.1 39.9229 34.4972 40.0134 34.8963 39.9912C35.2953 39.9691 35.6801 39.835 36.0065 39.6045C36.333 39.374 36.5881 39.0563 36.7425 38.6877C36.897 38.319 36.9446 37.9144 36.8799 37.52L36.1899 33C36.1794 32.9818 36.1739 32.9611 36.1739 32.94C36.1739 32.9189 36.1794 32.8983 36.1899 32.88L39.3899 29.6Z" fill="#FB9379"/>
</svg>
