<svg width="60" height="60" viewBox="0 0 60 60" fill="none" xmlns="http://www.w3.org/2000/svg">
<rect width="60" height="60" rx="14" fill="#F0EEFF"/>
<path d="M43.845 31.099L41.356 39.824C40.989 41.105 39.804 42 38.473 42H25C24.447 42 24 41.552 24 41V27C24 26.785 24.069 26.575 24.198 26.403L29.59 19.163C30.188 18.414 31.05 18 31.974 18C33.643 18 35 19.357 35 21.026V26H40.002C41.267 26 42.429 26.579 43.19 27.589C43.954 28.601 44.192 29.88 43.845 31.099Z" fill="#FF754C"/>
<path d="M21 26H17C16.447 26 16 26.448 16 27V41C16 41.552 16.447 42 17 42H21C21.553 42 22 41.552 22 41V27C22 26.448 21.553 26 21 26ZM19 39.5C18.172 39.5 17.5 38.828 17.5 38C17.5 37.172 18.172 36.5 19 36.5C19.828 36.5 20.5 37.172 20.5 38C20.5 38.828 19.828 39.5 19 39.5Z" fill="#FF754C"/>
</svg>
